<?xml version="1.0" encoding="utf-8"?>
<svg id="master-artboard" viewBox="0 0 259.57489013671875 261.099853515625" version="1.1" xmlns="http://www.w3.org/2000/svg" x="0px" y="0px" style="enable-background:new 0 0 1400 980;" width="259.57489013671875px" height="261.099853515625px"><defs><style id="ee-google-fonts">@import url(https://fonts.googleapis.com/css?family=Anton:400|Roboto+Slab:100,300,400,700);</style><path id="text-path-0" d="M 778.8464965820312 213.4612274169922 A 100 18 0 0 1 988.3533935546875 213.4612274169922 A 100 18 0 0 1 778.8464965820312 213.4612274169922 Z" style="fill: none; stroke: red; stroke-width: 2;"/><path id="text-path-1" d="M 664.5464477539062 37.96122741699219 A 100 19 0 0 1 876.5812377929688 37.96122741699219 A 100 19 0 0 1 664.5464477539062 37.96122741699219" style="fill: none; stroke: red; stroke-width: 2;"/><path id="text-path-2" d="M 765.3650512695312 211.70851135253906 A 100 17 0 0 1 991.5017700195312 211.70851135253906 A 100 17 0 0 1 765.3650512695312 211.70851135253906" style="fill: none; stroke: red; stroke-width: 2;"/><path id="path-1" d="M 765.3650512695312 211.70851135253906 A 100 17 0 0 1 991.5017700195312 211.70851135253906 A 100 17 0 0 1 765.3650512695312 211.70851135253906" style="fill: none; stroke: red; stroke-width: 2;"/><clipPath id="clip1">
  <path d="M 0.734375 9.753906 L 189.738281 9.753906 L 189.738281 175.109375 L 0.734375 175.109375 Z M 0.734375 9.753906 "/>
</clipPath><clipPath id="clip2">
  <path d="M 1 9.753906 L 189 9.753906 L 189 178 L 1 178 Z M 1 9.753906 "/>
</clipPath><clipPath id="clip3">
  <path d="M 235.441406 63.34375 L 142.347656 230.449219 L -24.730469 137.347656 L 68.359375 -29.757812 Z M 235.441406 63.34375 "/>
</clipPath><clipPath id="clip4">
  <path d="M 235.441406 63.34375 L 142.347656 230.449219 L -24.730469 137.347656 L 68.359375 -29.757812 Z M 235.441406 63.34375 "/>
</clipPath><clipPath id="clip5">
  <path d="M 235.441406 63.34375 L 142.347656 230.449219 L -24.730469 137.347656 L 68.359375 -29.757812 Z M 235.441406 63.34375 "/>
</clipPath><clipPath id="clip6">
  <path d="M 214.054688 51.429688 L 121.957031 216.746094 L -22.847656 136.0625 L 69.25 -29.265625 Z M 214.054688 51.429688 "/>
</clipPath><clipPath id="clip7">
  <path d="M 214.054688 51.429688 L 121.957031 216.746094 L -22.695312 136.144531 L 69.398438 -29.179688 Z M 214.054688 51.429688 "/>
</clipPath><clipPath id="clip8">
  <path d="M 77.128906 75.160156 L 112.84375 75.160156 L 112.84375 110.878906 L 77.128906 110.878906 Z M 77.128906 75.160156 "/>
</clipPath><clipPath id="clip9">
  <path d="M 235.441406 63.34375 L 142.347656 230.449219 L -24.730469 137.347656 L 68.359375 -29.757812 Z M 235.441406 63.34375 "/>
</clipPath><clipPath id="clip10">
  <path d="M 235.441406 63.34375 L 142.347656 230.449219 L -24.730469 137.347656 L 68.359375 -29.757812 Z M 235.441406 63.34375 "/>
</clipPath><clipPath id="clip11">
  <path d="M 235.441406 63.34375 L 142.347656 230.449219 L -24.730469 137.347656 L 68.359375 -29.757812 Z M 235.441406 63.34375 "/>
</clipPath><clipPath id="path-2">
  <path d="M 0.734375 9.753906 L 189.738281 9.753906 L 189.738281 175.109375 L 0.734375 175.109375 Z M 0.734375 9.753906 "/>
</clipPath><clipPath id="path-3">
  <path d="M 1 9.753906 L 189 9.753906 L 189 178 L 1 178 Z M 1 9.753906 "/>
</clipPath><clipPath id="path-4">
  <path d="M 235.441406 63.34375 L 142.347656 230.449219 L -24.730469 137.347656 L 68.359375 -29.757812 Z M 235.441406 63.34375 "/>
</clipPath><clipPath id="path-5">
  <path d="M 235.441406 63.34375 L 142.347656 230.449219 L -24.730469 137.347656 L 68.359375 -29.757812 Z M 235.441406 63.34375 "/>
</clipPath><clipPath id="path-6">
  <path d="M 235.441406 63.34375 L 142.347656 230.449219 L -24.730469 137.347656 L 68.359375 -29.757812 Z M 235.441406 63.34375 "/>
</clipPath><clipPath id="path-7">
  <path d="M 214.054688 51.429688 L 121.957031 216.746094 L -22.847656 136.0625 L 69.25 -29.265625 Z M 214.054688 51.429688 "/>
</clipPath><clipPath id="path-8">
  <path d="M 214.054688 51.429688 L 121.957031 216.746094 L -22.695312 136.144531 L 69.398438 -29.179688 Z M 214.054688 51.429688 "/>
</clipPath><clipPath id="path-9">
  <path d="M 77.128906 75.160156 L 112.84375 75.160156 L 112.84375 110.878906 L 77.128906 110.878906 Z M 77.128906 75.160156 "/>
</clipPath><clipPath id="path-10">
  <path d="M 235.441406 63.34375 L 142.347656 230.449219 L -24.730469 137.347656 L 68.359375 -29.757812 Z M 235.441406 63.34375 "/>
</clipPath><clipPath id="path-11">
  <path d="M 235.441406 63.34375 L 142.347656 230.449219 L -24.730469 137.347656 L 68.359375 -29.757812 Z M 235.441406 63.34375 "/>
</clipPath><clipPath id="path-12">
  <path d="M 235.441406 63.34375 L 142.347656 230.449219 L -24.730469 137.347656 L 68.359375 -29.757812 Z M 235.441406 63.34375 "/>
</clipPath><clipPath id="path-13">
  <path d="M 0 48 L 371 48 L 371 372.667969 L 0 372.667969 Z M 0 48 "/>
</clipPath></defs><rect id="ee-background" x="0" y="0" width="259.57489013671875" height="261.099853515625" style="fill: white; fill-opacity: 0; pointer-events: none;"/>


<g transform="matrix(0.7029809951782227, 0, 0, 0.7029809951782227, -45.21372222900396, -45.30592618136366)"><g id="XMLID_1_">
	<path id="XMLID_2_" class="st0" d="M367.6,192.9c-3.8-1.3-7.7-2.5-11.7-3.7c0.7-2.7,1.3-5.4,1.8-8c8.9-43.2,3.1-78-16.8-89.4&#10;&#9;&#9;c-19-11-50.2,0.5-81.6,27.8c-3,2.6-6.1,5.4-9.1,8.3c-2-1.9-4-3.8-6-5.6c-33-29.3-66-41.6-85.8-30.1c-19,11-24.7,43.7-16.7,84.6&#10;&#9;&#9;c0.8,4,1.7,8,2.7,12.1c-4.7,1.3-9.2,2.7-13.5,4.2c-38.6,13.5-63.3,34.6-63.3,56.5c0,22.6,26.5,45.3,66.7,59.1&#10;&#9;&#9;c3.2,1.1,6.5,2.1,9.9,3.1c-1.1,4.4-2.1,8.8-2.9,13c-7.6,40.2-1.7,72.1,17.3,83.1c19.6,11.3,52.5-0.3,84.5-28.3&#10;&#9;&#9;c2.5-2.2,5.1-4.6,7.6-7c3.3,3.2,6.6,6.2,9.9,9c31,26.7,61.7,37.5,80.6,26.5c19.6-11.3,25.9-45.6,17.7-87.4&#10;&#9;&#9;c-0.6-3.2-1.4-6.4-2.2-9.8c2.3-0.7,4.6-1.4,6.8-2.1c41.8-13.9,69.1-36.3,69.1-59.2C432.5,227.7,407,206.5,367.6,192.9z&#10;&#9;&#9; M358.5,294.1c-2,0.7-4,1.3-6.1,1.9c-4.6-14.6-10.9-30.2-18.5-46.2c7.3-15.7,13.3-31,17.8-45.6c3.7,1.1,7.4,2.2,10.9,3.4&#10;&#9;&#9;c33.8,11.6,54.4,28.8,54.4,42.1C416.9,263.8,394.7,282.1,358.5,294.1z M343.5,323.8c3.7,18.5,4.2,35.1,1.8,48.2&#10;&#9;&#9;c-2.2,11.7-6.5,19.5-12,22.7c-11.5,6.7-36.1-2-62.6-24.8c-3-2.6-6.1-5.4-9.2-8.4c10.3-11.2,20.6-24.3,30.6-38.8&#10;&#9;&#9;c17.6-1.6,34.3-4.1,49.4-7.6C342.3,318,343,320.9,343.5,323.8z M191.9,393.5c-11.2,4-20.2,4.1-25.6,1c-11.5-6.6-16.3-32.3-9.8-66.7&#10;&#9;&#9;c0.7-3.9,1.6-8,2.7-12.1c15,3.3,31.5,5.7,49.2,7.1c10.1,14.2,20.7,27.3,31.3,38.7c-2.3,2.2-4.6,4.4-7,6.4&#10;&#9;&#9;C218.6,380.3,204.4,389.1,191.9,393.5z M139.3,294c-17.8-6.1-32.5-14-42.6-22.6c-9.1-7.8-13.6-15.4-13.6-21.7&#10;&#9;&#9;c0-13.3,19.8-30.2,52.9-41.8c4-1.4,8.2-2.7,12.6-4c4.6,14.9,10.6,30.4,17.8,46.1c-7.3,15.9-13.4,31.7-18,46.8&#10;&#9;&#9;C145.2,295.9,142.2,295,139.3,294z M156.9,173.9c-6.9-35.1-2.3-61.5,9.2-68.1c12.2-7.1,39.2,3,67.7,28.3c1.8,1.6,3.6,3.3,5.5,5.1&#10;&#9;&#9;c-10.6,11.4-21.1,24.4-31.1,38.5c-17.2,1.6-33.6,4.1-48.7,7.6C158.5,181.3,157.7,177.5,156.9,173.9z M314.4,212.7&#10;&#9;&#9;c-3.6-6.2-7.3-12.3-11.1-18.3c11.6,1.5,22.8,3.4,33.3,5.8c-3.1,10.1-7.1,20.6-11.7,31.4C321.6,225.5,318.1,219.1,314.4,212.7z&#10;&#9;&#9; M250.2,150.2c7.2,7.8,14.4,16.5,21.5,25.9c-7.1-0.3-14.4-0.5-21.7-0.5c-7.2,0-14.4,0.2-21.5,0.5&#10;&#9;&#9;C235.6,166.8,242.9,158.1,250.2,150.2z M185.6,212.9c-3.6,6.3-7,12.6-10.3,18.9c-4.5-10.8-8.4-21.4-11.6-31.6&#10;&#9;&#9;c10.4-2.3,21.5-4.2,33.1-5.7C192.9,200.4,189.2,206.6,185.6,212.9L185.6,212.9z M197.1,306c-12-1.3-23.2-3.1-33.6-5.4&#10;&#9;&#9;c3.2-10.4,7.2-21.2,11.8-32.2c3.3,6.3,6.7,12.6,10.3,18.9h0C189.3,293.7,193.1,299.9,197.1,306z M250.6,350.3&#10;&#9;&#9;c-7.4-8-14.8-16.8-22-26.3c7,0.3,14.1,0.4,21.4,0.4c7.4,0,14.8-0.2,22-0.5C264.9,333.6,257.7,342.4,250.6,350.3z M325,267.8&#10;&#9;&#9;c4.9,11.1,9,21.9,12.3,32.1c-10.6,2.4-22,4.4-34,5.8c3.8-6,7.5-12.2,11.2-18.6C318.2,280.7,321.7,274.3,325,267.8z M300.9,279.4&#10;&#9;&#9;c-5.7,9.9-11.6,19.3-17.5,28.3c-10.8,0.8-22,1.2-33.4,1.2c-11.4,0-22.4-0.4-33-1c-6.2-9-12.2-18.5-17.8-28.3h0&#10;&#9;&#9;c-5.7-9.8-10.9-19.6-15.6-29.4c4.7-9.8,9.9-19.7,15.5-29.4l0,0c5.6-9.8,11.6-19.2,17.7-28.2c10.9-0.8,22-1.2,33.2-1.2h0&#10;&#9;&#9;c11.3,0,22.4,0.4,33.3,1.3c6,8.9,11.9,18.3,17.6,28.1c5.7,9.9,11,19.7,15.7,29.3C311.9,259.6,306.6,269.5,300.9,279.4z&#10;&#9;&#9; M333.1,105.3c12.2,7,17,35.5,9.3,72.8c-0.5,2.4-1,4.8-1.6,7.3c-15.1-3.5-31.6-6.1-48.8-7.7c-10-14.3-20.4-27.3-30.9-38.5&#10;&#9;&#9;c2.8-2.7,5.6-5.3,8.4-7.7C296.4,107.9,321.6,98.7,333.1,105.3z M250,217.1c18,0,32.6,14.6,32.6,32.6c0,18-14.6,32.6-32.6,32.6&#10;&#9;&#9;s-32.6-14.6-32.6-32.6C217.4,231.7,232,217.1,250,217.1z" style="fill: rgb(0, 216, 255); fill-opacity: 1;"/>
</g></g></svg>